<?xml version="1.0" standalone="no"?>
<!DOCTYPE svg PUBLIC "-//W3C//DTD SVG 20010904//EN"
 "http://www.w3.org/TR/2001/REC-SVG-20010904/DTD/svg10.dtd">
<svg version="1.0" xmlns="http://www.w3.org/2000/svg"
 width="334.000000pt" height="334.000000pt" viewBox="0 0 334.000000 334.000000"
 preserveAspectRatio="xMidYMid meet">
<metadata>
Created by potrace 1.14, written by Peter Selinger 2001-2017
</metadata>
<g transform="translate(0.000000,334.000000) scale(0.100000,-0.100000)"
fill="#000000" stroke="none">
<path d="M10 3310 c0 -8 9 -30 20 -47 11 -18 17 -33 15 -33 -3 0 5 -19 18 -42
13 -24 25 -47 26 -53 4 -13 22 -57 54 -125 14 -30 37 -82 52 -115 15 -33 40
-87 55 -120 16 -33 70 -152 120 -265 51 -113 108 -239 128 -280 19 -41 51
-113 72 -160 33 -74 80 -179 111 -245 5 -11 193 -425 418 -920 l409 -900 168
0 168 0 112 250 c123 273 127 282 239 530 42 94 85 188 95 210 10 22 118 263
240 535 122 272 229 511 238 530 8 19 27 62 42 95 16 33 38 83 50 110 12 28
33 75 47 105 24 51 89 198 135 300 11 25 31 68 43 95 13 28 34 75 48 105 13
30 34 77 46 103 12 26 19 53 15 59 -4 6 -3 8 4 4 6 -3 14 4 18 16 8 26 79 184
95 211 5 10 14 29 19 43 l9 24 -213 0 -213 -1 -12 -25 c-6 -14 -11 -31 -11
-39 0 -8 -5 -15 -10 -15 -6 0 -9 -3 -8 -7 1 -5 -14 -42 -34 -83 -19 -41 -45
-97 -58 -125 -12 -27 -35 -77 -50 -110 -16 -33 -42 -89 -58 -125 -17 -36 -52
-112 -79 -170 -27 -58 -58 -124 -68 -146 l-18 -42 -286 -1 c-157 -1 -531 -2
-831 -3 l-545 -2 -32 64 c-17 36 -41 88 -54 115 -12 28 -34 77 -49 110 -15 33
-37 83 -49 110 -13 28 -37 82 -55 120 -18 39 -49 106 -68 150 -20 44 -48 108
-64 143 -15 34 -31 62 -36 62 -5 0 -7 4 -4 8 3 4 -92 8 -210 8 -183 -1 -214
-3 -214 -16z m2326 -1255 c-7 -17 -107 -237 -133 -295 -14 -30 -83 -185 -154
-345 -72 -159 -133 -297 -138 -306 -5 -8 -57 -123 -116 -255 -59 -131 -110
-242 -114 -247 -4 -4 -17 14 -29 40 -70 158 -128 285 -158 350 -19 41 -34 76
-34 78 0 2 -15 36 -34 77 -18 40 -77 170 -130 288 -54 118 -107 235 -118 260
-11 25 -32 70 -45 100 -25 56 -46 103 -89 197 -13 28 -24 53 -24 55 0 2 195 3
433 3 237 0 488 2 557 5 202 8 331 6 326 -5z"/>
</g>
</svg>
